<svg xmlns="http://www.w3.org/2000/svg" fill="#000000" height="26.13411080127662" width="26.367346951117042" style=""><rect id="backgroundrect" width="100%" height="100%" x="0" y="0" fill="none" stroke="none" class="" style=""/>
    
    
<g class="currentLayer" style=""><title>Layer 1</title><path d="M0 0h24v24H0z" fill="none" id="svg_1"/><path d="M7.943673379967956,6.407054629325867 l-1.8,-1.79 l-1.4100000000000001,1.4100000000000001 l1.79,1.79 l1.42,-1.4100000000000001 zM5.183673379967956,12.067054629325867 H2.1836733799679564 v2 h3 v-2 zm9,-9.95 h-2 V5.067054629325867 h2 V2.1170546293258665 zm7.45,3.91 l-1.4100000000000001,-1.4100000000000001 l-1.79,1.79 l1.4100000000000001,1.4100000000000001 l1.79,-1.79 zm-3.21,13.7 l1.79,1.8 l1.4100000000000001,-1.4100000000000001 l-1.8,-1.79 l-1.4,1.4 zM21.183673379967956,12.067054629325867 v2 h3 v-2 h-3 zm-8,-5 c-3.31,0 -6,2.6900000000000004 -6,6 s2.6900000000000004,6 6,6 s6,-2.6900000000000004 6,-6 s-2.6900000000000004,-6 -6,-6 zm-1,16.95 h2 V21.067054629325867 h-2 v2.95 zm-7.45,-3.91 l1.4100000000000001,1.4100000000000001 l1.79,-1.8 l-1.4100000000000001,-1.4100000000000001 l-1.79,1.8 z" id="svg_2" class="selected" fill-opacity="1" fill="#ffeb3b"/></g></svg>